<svg width="41" height="37" viewBox="0 0 41 37" fill="none" xmlns="http://www.w3.org/2000/svg">
<path fill-rule="evenodd" clip-rule="evenodd" d="M32.7623 9.68851C33.3692 9.84476 33.7346 10.4635 33.5784 11.0705C33.0316 13.1945 31.8599 16.3899 29.6946 18.444C28.5856 19.496 27.1834 20.2781 25.4661 20.4158C23.7568 20.5528 21.8758 20.0402 19.8217 18.7669C17.9575 17.6113 16.5642 17.3399 15.5271 17.477C14.5023 17.6124 13.6356 18.1719 12.8669 19.0748C11.2835 20.9348 10.3916 23.9041 9.70487 26.19L9.68226 26.2653C9.50191 26.8655 8.86911 27.2059 8.26885 27.0256C7.66859 26.8452 7.32818 26.2124 7.50853 25.6122C7.53274 25.5316 7.55745 25.4491 7.5827 25.3648C8.23222 23.1965 9.23929 19.8347 11.1387 17.6035C12.157 16.4073 13.4948 15.4561 15.2297 15.2268C16.9523 14.9992 18.8739 15.5089 21.0175 16.8377C22.7811 17.931 24.1834 18.2416 25.2847 18.1533C26.3781 18.0657 27.314 17.5737 28.1325 16.7973C29.822 15.1947 30.8625 12.5162 31.3803 10.5046C31.5366 9.89766 32.1553 9.53227 32.7623 9.68851Z" fill="#4FB2C0"/>
<path d="M8.04632 31.2601C7.9588 31.3728 7.83378 31.4156 7.69054 31.4348C7.40454 31.4722 7.11953 31.4689 6.83295 31.412C6.81058 31.4079 6.78888 31.4054 6.76149 31.4005C6.75063 31.4264 6.74023 31.4512 6.72984 31.4759C6.33627 32.4129 5.94271 33.3498 5.54961 34.2857C5.13904 35.2631 4.08976 35.8241 2.97183 35.6629C1.49654 35.4507 0.471481 34.0489 0.799758 32.6875C0.828805 32.5674 0.869506 32.4482 0.916088 32.3341C1.08985 31.9109 1.26703 31.4891 1.44762 31.0687C1.51537 30.9106 1.64602 30.8225 1.82822 30.8157C2.00814 30.8079 2.15148 30.884 2.24858 31.032C2.33761 31.1673 2.34032 31.3074 2.27965 31.4486C2.10673 31.8603 1.93333 32.2731 1.76041 32.6848C1.4585 33.4035 1.77428 34.2256 2.50335 34.6245C3.28058 35.0489 4.27173 34.7824 4.65122 34.0446C4.6775 33.9948 4.70198 33.9429 4.72419 33.89C5.11208 32.9665 5.49951 32.0442 5.88741 31.1207C5.89733 31.0971 5.90678 31.0746 5.91623 31.0521C5.80916 30.9661 5.70247 30.8856 5.6009 30.7992C5.44052 30.6617 5.30675 30.5023 5.1903 30.3304C5.10346 30.2026 5.0926 30.0723 5.1584 29.9412C5.30597 29.6472 5.45581 29.3542 5.60405 29.0618C5.76448 28.7468 5.92425 28.4301 6.08468 28.1151C6.33038 27.6321 6.57495 27.1486 6.82065 26.6656C6.88267 26.5434 6.94469 26.4213 7.0067 26.2991C7.10209 26.1103 7.27018 26.0287 7.49325 26.0615C7.50216 26.0626 7.51088 26.061 7.51912 26.0605C8.07992 26.296 8.63958 26.5311 9.20038 26.7667C9.20579 26.7729 9.21186 26.7808 9.21774 26.7859C9.39782 26.9211 9.45724 27.0982 9.38982 27.3001C9.25979 27.6862 9.13137 28.0715 9.0002 28.4571C8.7271 29.2634 8.45286 30.0692 8.18043 30.8771C8.15521 30.9498 8.13521 31.0261 8.11341 31.1003C8.09167 31.1521 8.06899 31.2061 8.04632 31.2601Z" fill="black"/>
<path d="M32.6613 5.75913C32.7423 5.64156 32.8646 5.59175 33.0066 5.5644C33.29 5.51085 33.5747 5.4979 33.8641 5.53835C33.8866 5.54118 33.9084 5.54244 33.936 5.54576C33.9454 5.51931 33.9544 5.49401 33.9634 5.46872C34.303 4.51087 34.6426 3.55302 34.9818 2.59633C35.3361 1.59709 36.3517 0.977309 37.477 1.07469C38.962 1.2025 40.0652 2.54375 39.8149 3.92159C39.7927 4.04318 39.7589 4.1645 39.7189 4.28105C39.5695 4.71349 39.4166 5.14469 39.2602 5.57466C39.2016 5.73638 39.0761 5.83171 38.8946 5.8489C38.7154 5.86692 38.568 5.79911 38.4626 5.6569C38.366 5.52687 38.3554 5.38717 38.4079 5.2427C38.5571 4.82184 38.7067 4.39984 38.8559 3.97898C39.1165 3.24421 38.7544 2.44145 38.0038 2.08472C37.2037 1.70525 36.2293 2.0277 35.8924 2.78588C35.869 2.83712 35.8475 2.89034 35.8284 2.94439C35.4937 3.88843 35.1594 4.83133 34.8246 5.77538C34.8161 5.79953 34.8079 5.82252 34.7998 5.84552C34.9116 5.92528 35.0227 5.99962 35.129 6.08004C35.2969 6.20818 35.4396 6.35972 35.5656 6.52479C35.6596 6.64743 35.6778 6.77687 35.6196 6.91155C35.489 7.21345 35.3561 7.51452 35.2247 7.81485C35.0825 8.13851 34.941 8.46373 34.7987 8.78738C34.5809 9.28358 34.3643 9.7802 34.1464 10.2764C34.0915 10.4019 34.0365 10.5274 33.9816 10.6529C33.8971 10.8468 33.7339 10.9378 33.5093 10.9178C33.5004 10.9172 33.4917 10.9193 33.4835 10.9203C32.9103 10.717 32.3381 10.5142 31.7648 10.3109C31.7591 10.305 31.7526 10.2975 31.7464 10.2927C31.5589 10.168 31.4895 9.99453 31.5453 9.78909C31.6532 9.39629 31.7595 9.00422 31.8685 8.61183C32.0953 7.79131 32.3232 6.97121 32.5492 6.14913C32.5702 6.07504 32.5859 5.99774 32.6034 5.92241C32.6222 5.86951 32.6417 5.81432 32.6613 5.75913Z" fill="black"/>
</svg>
